<svg width="118" height="100" viewBox="0 0 118 100" fill="none" xmlns="http://www.w3.org/2000/svg">
<path d="M62.0159 78.672L63.3403 83.7366C63.6996 85.1113 62.8724 86.5188 61.4926 86.8807L47.0197 90.6722C45.6399 91.0341 44.2298 90.2129 43.8703 88.8377L42.7751 84.65" stroke="#FF6466" stroke-width="2"/>
<path fill-rule="evenodd" clip-rule="evenodd" d="M83.1784 72.6364L25.1956 90.1247L20.6783 84.1532L53.1703 32.9679L83.1784 72.6364Z" stroke="#FF6466" stroke-width="2"/>
<path fill-rule="evenodd" clip-rule="evenodd" d="M25.6114 92.6861C24.9564 93.1809 24.024 93.0542 23.5285 92.4026L18.1485 85.3209C17.6534 84.6686 17.7827 83.7389 18.4384 83.2439C19.0932 82.7485 20.0258 82.8758 20.5207 83.5275L25.9007 90.6092C26.3962 91.2608 26.2665 92.1912 25.6114 92.6861Z" fill="#084183" stroke="#FF6466" stroke-width="2"/>
<path fill-rule="evenodd" clip-rule="evenodd" d="M84.6832 74.0518C84.0281 74.5466 83.0957 74.42 82.6001 73.7678L52.1132 33.6381C51.6183 32.9863 51.7476 32.0567 52.4026 31.5618C53.0581 31.0662 53.9906 31.1935 54.4855 31.8452L84.9724 71.975C85.4679 72.6266 85.3382 73.557 84.6832 74.0518Z" fill="#084183" stroke="#FF6466" stroke-width="2"/>
<path d="M69.5783 29.2901L75.6526 7.29811" stroke="#FF6466" stroke-width="2" stroke-linecap="round" stroke-linejoin="round"/>
<path d="M83.7493 40.444L99.7933 28.3178" stroke="#FF6466" stroke-width="2" stroke-linecap="round" stroke-linejoin="round"/>
<path d="M90.6819 57.0686L113.552 57.1842" stroke="#FF6466" stroke-width="2" stroke-linecap="round" stroke-linejoin="round"/>
</svg>
